<?xml version="1.0" encoding="UTF-8" standalone="no"?>
<!-- Created with Inkscape (http://www.inkscape.org/) -->
<svg
   xmlns:dc="http://purl.org/dc/elements/1.1/"
   xmlns:cc="http://web.resource.org/cc/"
   xmlns:rdf="http://www.w3.org/1999/02/22-rdf-syntax-ns#"
   xmlns:svg="http://www.w3.org/2000/svg"
   xmlns="http://www.w3.org/2000/svg"
   xmlns:sodipodi="http://sodipodi.sourceforge.net/DTD/sodipodi-0.dtd"
   xmlns:inkscape="http://www.inkscape.org/namespaces/inkscape"
   width="295"
   height="203"
   id="svg2"
   sodipodi:version="0.32"
   inkscape:version="0.45"
   sodipodi:docname="ryanlerch_hotdog_-_colour.svg"
   inkscape:output_extension="org.inkscape.output.svg.inkscape"
   sodipodi:docbase="/home/evans/Desktop"
   sodipodi:modified="true"
   version="1.0">
  <defs
     id="defs4" />
  <sodipodi:namedview
     id="base"
     pagecolor="#ffffff"
     bordercolor="#666666"
     borderopacity="1.0"
     gridtolerance="10000"
     guidetolerance="10"
     objecttolerance="10"
     inkscape:pageopacity="0.0"
     inkscape:pageshadow="2"
     inkscape:zoom="2.3694581"
     inkscape:cx="147.5"
     inkscape:cy="101.5"
     inkscape:document-units="px"
     inkscape:current-layer="layer1"
     inkscape:window-width="1020"
     inkscape:window-height="690"
     inkscape:window-x="0"
     inkscape:window-y="27" />
  <metadata
     id="metadata7">
    <rdf:RDF>
      <cc:Work
         rdf:about="">
        <dc:format>image/svg+xml</dc:format>
        <dc:type
           rdf:resource="http://purl.org/dc/dcmitype/StillImage" />
      </cc:Work>
    </rdf:RDF>
  </metadata>
  <g
     inkscape:label="Layer 1"
     inkscape:groupmode="layer"
     id="layer1"
     transform="translate(0,-0.3621826)">
    <g
       transform="matrix(0.800089,0,0,0.800089,-24.733353,-68.63173)"
       id="g2221"
       inkscape:label="Layer 1">
      <g
         transform="matrix(0.6189,0,0,0.6189,30.47317,85.00632)"
         inkscape:label="Ebene 1"
         id="g1322">
        <g
           id="g15499"
           transform="matrix(1.251473,0,0,1.251473,-629.1617,-229.8085)">
          <path
             sodipodi:nodetypes="czzccccccc"
             id="path8344"
             d="M 888.28563,251.45847 C 858.28108,219.41084 812.89135,224.37237 785.78417,273.11607 C 758.67699,321.85977 723.34185,344.06295 673.98852,318.85421 C 624.63519,293.64548 575.36058,285.92884 579.19018,334.52167 L 584.43155,364.06996 L 612.79987,408.20253 L 720.05307,459.00668 L 871.05429,415.96428 L 933.14824,317.88405 L 888.28563,251.45847 z "
             style="fill:#ffffff;fill-opacity:1;fill-rule:evenodd;stroke:#000000;stroke-width:5;stroke-linecap:butt;stroke-linejoin:miter;stroke-miterlimit:4;stroke-dasharray:none;stroke-opacity:1" />
          <path
             sodipodi:nodetypes="czczc"
             id="path8342"
             d="M 940.5763,278.89959 C 991.30335,225.98916 905.58412,162.13285 876.86604,232.26763 C 848.14797,302.40242 768.57947,363.82888 688.27956,360.0818 C 634.71809,371.0079 536.59987,292.4921 523.08812,344.11605 C 509.57638,395.74001 545.15771,411.97557 574.90385,417.56435"
             style="fill:#ffffff;fill-opacity:1;fill-rule:evenodd;stroke:#000000;stroke-width:5;stroke-linecap:butt;stroke-linejoin:miter;stroke-miterlimit:4;stroke-dasharray:none;stroke-opacity:1" />
          <path
             sodipodi:nodetypes="czzccccczzzczcczczcc"
             id="path8350"
             d="M 916.0805,282.56214 C 901.63093,282.46374 887.06809,274.53426 868.32751,269.05836 C 849.58693,263.58246 833.04719,263.73828 826.77457,289.48311 C 820.4487,315.4465 847.27357,324.09314 841.32214,339.51984 C 825.83046,351.39488 803.84054,340.00106 786.61354,336.15996 C 765.09013,327.43587 750.08925,348.24978 749.71984,367.95781 C 747.9673,387.34607 723.95715,383.95034 715.29096,371.49411 C 707.59734,360.21424 698.69691,345.58478 682.5792,347.98665 C 669.9251,352.07528 658.9728,369.12606 643.68823,362.38386 C 628.40366,355.64166 634.49841,341.43701 625.29286,327.92184 C 616.08731,314.40667 600.05436,335.76292 607.71043,351.65806 C 615.3665,367.5532 627.30193,384.84014 646.90924,381.36026 C 663.23799,386.73848 676.01361,364.32604 691.62537,375.29161 C 707.23714,386.25718 710.7744,403.45032 729.87208,404.25009 C 750.9435,405.72502 764.69406,382.7258 769.92016,364.15072 C 775.89857,346.48062 794.91399,365.38952 809.47349,368.72975 C 824.03299,372.06999 849.30694,364.65933 860.85935,351.00495 C 876.32709,329.14412 837.16613,302.79197 849.40455,288.3105 C 860.7945,274.833 873.9141,298.65541 886.04511,301.41892 C 895.40221,301.97465 914.80364,311.69716 892.59695,312.75528"
             style="fill:#ffffff;fill-opacity:1;fill-rule:evenodd;stroke:#000000;stroke-width:5;stroke-linecap:butt;stroke-linejoin:miter;stroke-miterlimit:4;stroke-dasharray:none;stroke-opacity:1" />
          <path
             sodipodi:nodetypes="czzcz"
             id="path8340"
             d="M 892.26812,428.71271 C 1002.0473,361.57627 964.40941,227.74722 884.14863,286.61245 C 803.88785,345.47768 745.89197,423.86494 670.9748,385.8831 C 596.05763,347.90125 526.45422,410.62617 599.12981,467.00086 C 689.98752,518.29065 782.48893,495.84915 892.26812,428.71271 z "
             style="fill:#ffffff;fill-opacity:1;fill-rule:evenodd;stroke:#000000;stroke-width:5;stroke-linecap:butt;stroke-linejoin:miter;stroke-miterlimit:4;stroke-dasharray:none;stroke-opacity:1" />
          <path
             style="fill:none;fill-opacity:0.75;fill-rule:evenodd;stroke:#000000;stroke-width:5;stroke-linecap:round;stroke-linejoin:miter;stroke-miterlimit:4;stroke-dasharray:none;stroke-opacity:1"
             d="M 539.96375,346.53192 C 529.73817,346.18067 522.77658,355.77697 519.85871,364.48285"
             id="path13640" />
          <path
             id="path13644"
             d="M 935.60207,208.66884 C 925.93798,209.37871 913.92733,211.49071 909.75276,221.5935"
             style="fill:none;fill-opacity:0.75;fill-rule:evenodd;stroke:#000000;stroke-width:5;stroke-linecap:round;stroke-linejoin:miter;stroke-miterlimit:4;stroke-dasharray:none;stroke-opacity:1" />
        </g>
      </g>
    </g>
    <path
       style="fill:#ffdd55;fill-opacity:1;stroke:none"
       d="M 126.60862,125.98119 C 122.89675,121.45575 117.97501,116.99202 115.41483,115.82907 C 111.61952,114.10507 108.09432,114.71898 100.25013,118.47 C 97.59194,119.74112 96.57249,119.98774 95.56294,119.60391 C 92.21649,118.33159 85.12338,116.86216 80.30999,116.44407 C 74.01205,115.89702 73.96889,115.86785 69.66004,109.24662 C 65.84772,103.38839 64.68794,100.15431 65.11285,96.56663 C 65.70336,91.58066 69.27471,87.09261 72.08959,87.7991 C 73.92579,88.25997 76.34615,92.55191 77.52152,97.43139 C 79.14561,104.17372 80.29385,106.61584 82.93153,108.93761 C 86.04747,111.68039 89.67489,112.83171 93.13165,112.1751 C 96.87935,111.46323 98.14055,110.87326 103.24857,107.44258 C 109.46275,103.26898 110.96262,102.54364 113.36591,102.54982 C 118.10975,102.56202 122.77677,106.10576 128.2761,113.87141 C 129.88,116.1363 132.08332,118.72434 133.17235,119.62262 C 137.43738,123.14057 144.18362,124.33785 148.55493,122.35264 C 152.1769,120.70774 153.34839,118.37659 154.6413,110.24144 C 156.02249,101.5507 161.23146,95.28702 167.97425,94.2088 C 169.73114,93.92786 172.11802,94.39477 179.50361,96.4641 C 184.62619,97.89937 188.7575,99.24272 188.68429,99.44933 C 188.43694,100.14725 179.16692,107.35049 178.51643,107.35022 C 178.16166,107.35007 176.60729,106.86948 175.06225,106.28225 C 171.51518,104.93407 169.37738,104.93167 167.2064,106.2734 C 165.47524,107.34333 164.93239,108.32708 162.33948,115.09331 C 161.55165,117.14916 160.65287,119.15185 160.34219,119.54374 C 159.48762,120.62166 152.87814,123.81587 147.396,125.80033 C 141.68969,127.86594 135.44959,129.24555 131.83751,129.24015 C 129.35498,129.23644 129.19883,129.13912 126.60862,125.98118 L 126.60862,125.98119 z "
       id="path2248" />
    <path
       style="fill:#ffdd55;fill-opacity:1;stroke:none"
       d="M 205.44787,81.14254 C 204.4712,79.65067 203.17836,77.31387 202.5749,75.94965 C 199.48137,68.95622 203.09328,57.11315 209.39827,53.57646 C 214.04208,50.97158 219.16444,51.50211 232.53725,55.973 L 240.21217,58.53894 L 235.47417,61.91946 C 232.86828,63.77875 230.4596,65.40644 230.12157,65.53656 C 229.78353,65.66669 228.34178,64.88054 226.91765,63.78958 C 222.21498,60.1871 218.83803,59.47857 215.64615,61.42468 C 211.64927,63.86162 210.65593,68.8701 213.11981,74.16279 C 213.85117,75.73384 214.44956,77.32819 214.44956,77.70577 C 214.44956,78.31761 208.19274,83.85504 207.50141,83.85504 C 207.34861,83.85504 206.42452,82.63442 205.44786,81.14254 L 205.44787,81.14254 z "
       id="path2250" />
    <path
       style="fill:#ff5555;fill-opacity:1;stroke:none"
       d="M 34.49578,140.22945 C 27.34109,137.72137 21.31169,133.89098 17.967,129.72896 C 12.80171,123.30145 10.64738,113.82685 13.16748,108.62101 C 14.45752,105.95615 17.87807,102.69054 19.79766,102.29116 C 20.5393,102.13685 21.76243,101.88197 22.51573,101.72474 C 23.55944,101.5069 23.84535,101.15877 23.7172,100.26174 C 23.6247,99.6143 23.14662,99.00793 22.65477,98.91423 C 20.96049,98.59147 17.44536,99.90873 14.98076,101.79 C 13.14955,103.1878 12.58045,103.42578 12.78147,102.7097 C 12.93063,102.17836 13.43833,100.363 13.90968,98.67557 C 14.89931,95.13277 17.13731,92.31688 20.29455,90.64205 C 22.13032,89.66822 23.29482,89.49244 27.55394,89.54625 C 30.34403,89.5815 34.36917,89.9942 36.49871,90.46336 C 40.75502,91.40107 51.68679,94.86569 58.06,97.2968 C 62.01988,98.80734 62.14291,98.9085 62.46428,100.91821 C 62.86406,103.41827 65.87833,109.2686 68.7242,113.06794 C 69.8697,114.59723 70.80693,115.95638 70.80693,116.08827 C 70.80693,116.22015 69.54538,116.49252 68.00349,116.69351 C 64.01122,117.21395 56.06769,119.94417 52.92475,121.87615 C 46.14188,126.0456 41.64557,131.64293 39.98102,137.98941 C 39.47089,139.93436 38.80899,141.5078 38.51011,141.48594 C 38.21123,141.46408 36.40479,140.89866 34.49578,140.22946 L 34.49578,140.22945 z "
       id="path2252" />
    <path
       style="fill:#ff5555;fill-opacity:1;stroke:none"
       d="M 118.55076,128.42274 C 114.06655,127.43818 108.60718,125.47351 104.26547,123.28187 L 100.61188,121.43759 L 104.53084,119.63122 C 109.26224,117.45039 112.42197,117.26085 115.21988,118.99005 C 117.10715,120.15645 124.03678,126.93898 124.87924,128.44437 C 125.44639,129.45783 123.23061,129.45024 118.55076,128.42274 L 118.55076,128.42274 z "
       id="path2254" />
    <path
       style="fill:#ff5555;fill-opacity:1;stroke:none"
       d="M 139.15732,119.68432 C 136.10858,118.60744 131.99943,114.82412 129.91585,111.17564 L 128.95118,109.48644 L 130.5099,109.48644 C 132.50892,109.48644 143.64761,107.18558 148.50041,105.77024 C 150.55532,105.17092 152.40083,104.68055 152.60153,104.68055 C 152.80224,104.68055 152.73573,105.46151 152.45376,106.41601 C 152.17177,107.37051 151.70864,109.93474 151.42458,112.11429 C 151.1405,114.29384 150.54361,116.63337 150.09815,117.31323 C 148.06694,120.41325 143.82418,121.33273 139.15732,119.68431 L 139.15732,119.68432 z "
       id="path2256" />
    <path
       style="fill:#ff5555;fill-opacity:1;stroke:none"
       d="M 165.57096,114.95981 C 167.06475,108.93412 169.13793,107.29224 173.44592,108.72312 C 174.89007,109.20279 175.996,109.65811 175.90355,109.73494 C 174.50156,110.90006 166.0856,116.42828 165.71385,116.42828 C 165.42859,116.42828 165.36611,115.78616 165.57097,114.95981 L 165.57096,114.95981 z "
       id="path2258" />
    <path
       style="fill:#ff5555;fill-opacity:1;stroke:none"
       d="M 184.14795,94.88598 C 180.84508,93.9586 178.14177,93.05485 178.14058,92.87768 C 178.13937,92.70049 179.88054,91.4004 182.00982,89.98857 C 186.85431,86.7764 193.46189,81.77172 196.95863,78.66612 L 199.63049,76.29311 L 200.60522,78.47022 C 201.14132,79.66763 202.31296,81.71273 203.20887,83.01488 C 204.10477,84.31703 204.83778,85.61221 204.83778,85.89305 C 204.83778,86.83714 192.3808,96.67232 191.24947,96.62145 C 190.64649,96.59434 187.45079,95.81338 184.14794,94.88599 L 184.14795,94.88598 z "
       id="path2260" />
    <path
       style="fill:#ff5555;fill-opacity:1;stroke:none"
       d="M 215.79388,73.10375 C 213.91067,69.05835 214.02316,67.08704 216.26512,64.84509 C 217.26366,63.84654 218.52893,63.02953 219.07681,63.02953 C 220.69922,63.02953 227.94291,67.46482 227.21328,68.01147 C 227.09503,68.10007 225.07591,69.70123 222.72636,71.56961 C 220.37682,73.43799 218.15596,75.19222 217.79112,75.4679 C 217.30751,75.83332 216.76635,75.19274 215.79388,73.10375 L 215.79388,73.10375 z "
       id="path2262" />
    <path
       style="fill:#ff5555;fill-opacity:1;stroke:none"
       d="M 236.07605,54.20601 C 232.55173,52.9391 228.10629,51.48179 226.19728,50.96755 C 224.28828,50.45331 222.64481,49.97177 222.54513,49.89747 C 222.44548,49.82317 223.4769,47.9289 224.83723,45.68799 C 226.19757,43.44708 229.44913,37.20116 232.06295,31.80817 C 237.66688,20.24579 240.52549,16.75484 246.83743,13.7654 C 250.1462,12.19832 250.95051,12.03688 255.2996,12.06692 C 258.34166,12.08794 260.79142,12.39661 261.97444,12.90797 L 263.8434,13.71581 L 259.84035,14.93257 C 256.57762,15.92431 255.36788,16.61877 253.299,18.68764 C 251.55118,20.43546 250.76071,21.66543 250.76071,22.63719 C 250.76071,24.72316 252.54128,24.48251 253.948,22.20641 C 254.57413,21.19328 255.85528,19.89458 256.79498,19.32039 C 259.14544,17.88417 263.83613,16.57262 266.62218,16.57262 C 268.59151,16.57262 269.29532,16.90001 271.30172,18.74945 C 279.97293,26.74228 281.60272,39.92986 275.22325,50.48082 C 274.33536,51.94929 273.01126,53.78802 272.2808,54.5669 L 270.95269,55.98304 L 267.93203,54.5669 C 265.1987,53.28547 264.32724,53.15304 258.77052,53.17475 C 253.18538,53.19656 252.22175,53.35361 248.12206,54.91021 C 245.64288,55.85152 243.36008,56.59643 243.04918,56.56558 C 242.73828,56.53473 239.60037,55.47292 236.07605,54.20601 z "
       id="path2264" />
    <path
       style="fill:#fff3c3;fill-opacity:1;stroke:none"
       d="M 118.59881,190.83777 C 99.96921,189.93883 83.22076,185.40569 65.27313,176.40461 C 59.87522,173.69745 58.82859,172.91362 53.72485,167.75593 C 44.79757,158.73427 41.63235,152.06696 42.07829,143.2233 C 42.38469,137.14672 44.10415,133.48686 48.89906,128.70535 C 55.04932,122.57228 62.41582,119.74238 73.47687,119.26361 C 83.75882,118.81856 91.29207,120.51903 103.27124,125.98906 C 110.97697,129.50771 114.89359,130.74254 121.53574,131.74744 C 133.65873,133.58155 147.89194,130.22829 161.93697,122.22914 C 172.66287,116.12035 181.15959,109.73906 205.76809,89.3106 C 242.0045,59.22938 247.27657,55.91944 259.0652,55.84941 C 263.60865,55.82242 264.14379,55.94179 267.98065,57.83807 C 276.56565,62.08101 281.05404,70.66384 281.58622,83.85504 C 282.29488,101.42083 274.87926,118.73542 260.12164,133.97221 C 252.98839,141.33707 246.57828,146.24883 235.4269,152.89458 C 198.28948,175.02692 166.69781,187.12092 138.35634,190.05539 C 132.10813,190.70233 123.14632,191.05721 118.59881,190.83777 z "
       id="path2266" />
    <path
       style="fill:#ffeda5;fill-opacity:1;stroke:none"
       d="M 95.10336,106.45507 C 94.51597,106.32442 91.34264,105.48683 88.05151,104.59375 C 81.32555,102.7686 81.97904,103.4639 80.13875,96.17488 C 77.72015,86.59525 72.75954,82.64206 67.54847,86.14147 C 65.78038,87.3288 62.84279,91.8619 62.80142,93.46682 C 62.74412,95.68896 62.05021,95.6699 55.28334,93.26041 L 48.64645,90.8972 L 48.75513,87.08492 C 48.90411,81.85905 50.86216,77.85683 54.44643,75.452 C 57.94668,73.10353 60.60172,72.42846 66.26804,72.44624 C 75.57075,72.47544 85.61983,75.42822 101.66385,82.84684 C 116.53749,89.72427 119.27407,90.476 129.54555,90.50584 C 137.48753,90.52891 138.01016,90.46267 142.4648,88.86836 C 155.00604,84.37988 164.74454,74.86258 176.00739,56.08769 C 184.62125,41.7286 193.22439,34.20019 204.4275,31.21786 C 208.04408,30.25511 214.89692,30.26163 218.98845,31.23172 C 222.97699,32.1774 227.26526,34.04832 227.26526,34.84279 C 227.26526,35.61509 222.76771,43.95084 220.81474,46.79817 L 219.3118,48.98939 L 215.04782,49.28165 C 210.23634,49.61143 206.32545,51.33597 203.90728,54.19415 C 200.8929,57.75701 198.20035,65.96718 198.5162,70.63264 L 198.69693,73.30217 L 195.22601,76.34884 C 190.40761,80.57827 183.35008,85.86337 178.40441,88.94588 C 174.27567,91.5192 174.19807,91.54244 170.18002,91.40889 C 166.54239,91.28798 165.77365,91.44943 162.73247,92.97299 C 160.20642,94.23849 158.72942,95.45977 156.94306,97.76009 C 154.68785,100.66418 154.2852,100.9301 150.18853,102.22111 C 144.42318,104.03797 140.42252,105.0131 134.68198,106.00066 C 127.63622,107.21277 127.07821,107.13927 124.36929,104.64228 C 121.01585,101.55118 117.16917,99.88629 113.36591,99.87988 C 109.91374,99.87407 108.72132,100.3741 103.00379,104.22515 C 99.2792,106.73386 97.99118,107.0974 95.10336,106.45507 L 95.10336,106.45507 z "
       id="path2268" />
  </g>
</svg>
